<?xml version="1.0" encoding="UTF-8" standalone="no"?>
<svg
   xmlns:dc="http://purl.org/dc/elements/1.1/"
   xmlns:cc="http://creativecommons.org/ns#"
   xmlns:rdf="http://www.w3.org/1999/02/22-rdf-syntax-ns#"
   xmlns:svg="http://www.w3.org/2000/svg"
   xmlns="http://www.w3.org/2000/svg"
   xmlns:sodipodi="http://sodipodi.sourceforge.net/DTD/sodipodi-0.dtd"
   xmlns:inkscape="http://www.inkscape.org/namespaces/inkscape"
   width="256px"
   height="256px"
   viewBox="0 0 256 256"
   version="1.1"
   id="SVGRoot"
   inkscape:version="1.0.2 (e86c870879, 2021-01-15)"
   sodipodi:docname="cyan.svg">
  <sodipodi:namedview
     id="base"
     pagecolor="#ffffff"
     bordercolor="#666666"
     borderopacity="1.0"
     inkscape:pageopacity="0.0"
     inkscape:pageshadow="2"
     inkscape:zoom="1"
     inkscape:cx="-268.5"
     inkscape:cy="128"
     inkscape:document-units="px"
     inkscape:current-layer="layer1"
     showgrid="false"
     inkscape:window-width="1920"
     inkscape:window-height="1016"
     inkscape:window-x="0"
     inkscape:window-y="27"
     inkscape:window-maximized="1"
     inkscape:grid-bbox="true"
     inkscape:document-rotation="0" />
  <defs
     id="defs19" />
  <metadata
     id="metadata22">
    <rdf:RDF>
      <cc:Work
         rdf:about="">
        <dc:format>image/svg+xml</dc:format>
        <dc:type
           rdf:resource="http://purl.org/dc/dcmitype/StillImage" />
        <dc:title />
      </cc:Work>
    </rdf:RDF>
  </metadata>
  <g
     id="layer1"
     inkscape:groupmode="layer"
     inkscape:label="Layer 1">
    <path
       inkscape:connector-curvature="0"
       id="rect43"
       d="M 2e-6,256 C 85.333334,256 170.66667,256 256,256 256,170.66667 256,85.333334 256,2e-6 170.66667,2e-6 85.333334,2e-6 2e-6,2e-6 2e-6,85.333334 2e-6,170.66667 2e-6,256 Z"
       style="fill:#000000;fill-opacity:1;stroke-width:1.16621" />
    <g
       style="fill:#8ed6fb;fill-opacity:1;stroke:none"
       transform="matrix(7.6190475,0,0,7.6190475,36.57143,-85.33333)"
       id="layer1-3">
      <path
         inkscape:connector-curvature="0"
         style="fill:#8ed6fb;fill-opacity:1;fill-rule:nonzero;stroke:none;stroke-width:1.61;shape-rendering:crispEdges"
         d="M 16.961178,40 V 32.96749 H 24 L 19.02373,27.991954 24,23.028517 H 16.961178 V 16 L 11.972832,20.979527 7.010644,16 v 7.028517 H 0 L 4.946084,27.991954 0,32.96749 H 7.010644 V 40 L 11.972832,35.040614 16.961178,40"
         id="octagon" />
    </g>
  </g>
</svg>
